<svg xmlns="http://www.w3.org/2000/svg" xml:space="preserve" width="828.16797" height="200" viewBox="0 0 828.16797 200"><defs><linearGradient id="a" x1="0" x2="1" y1="0" y2="0" gradientTransform="matrix(335.24233 0 0 -335.24233 -160.477 313.72)" gradientUnits="userSpaceOnUse" spreadMethod="pad"><stop offset="0" style="stop-opacity:1;stop-color:#00592d"/><stop offset="1" style="stop-opacity:1;stop-color:#6fbf59"/></linearGradient><linearGradient id="b" x1="0" x2="1" y1="0" y2="0" gradientTransform="matrix(335.23824 0 0 -335.23824 -160.476 313.72)" gradientUnits="userSpaceOnUse" spreadMethod="pad"><stop offset="0" style="stop-opacity:1;stop-color:#00592d"/><stop offset="1" style="stop-opacity:1;stop-color:#6fbf59"/></linearGradient><linearGradient id="c" x1="0" x2="1" y1="0" y2="0" gradientTransform="matrix(335.2479 0 0 -335.2479 -160.484 300.66)" gradientUnits="userSpaceOnUse" spreadMethod="pad"><stop offset="0" style="stop-opacity:1;stop-color:#00592d"/><stop offset="1" style="stop-opacity:1;stop-color:#6fbf59"/></linearGradient><linearGradient id="d" x1="0" x2="1" y1="0" y2="0" gradientTransform="matrix(335.22805 0 0 -335.22805 -160.464 354.916)" gradientUnits="userSpaceOnUse" spreadMethod="pad"><stop offset="0" style="stop-opacity:1;stop-color:#00592d"/><stop offset="1" style="stop-opacity:1;stop-color:#6fbf59"/></linearGradient><linearGradient id="e" x1="0" x2="1" y1="0" y2="0" gradientTransform="matrix(335.24037 0 0 -335.24037 -160.476 302.215)" gradientUnits="userSpaceOnUse" spreadMethod="pad"><stop offset="0" style="stop-opacity:1;stop-color:#00592d"/><stop offset="1" style="stop-opacity:1;stop-color:#6fbf59"/></linearGradient></defs><path d="m102.585 230.24-5.907 10.864-4.083-5.159v-5.704h-2.07v20.412h2.07v-11.727l9.038 11.727h2.53l-6.099-7.886 6.972-12.526zM113.997 241.65a3.351 3.351 0 0 1-2.45 1.03 3.29 3.29 0 0 1-2.422-1.03c-.98-1.033-1.09-2.782-1.09-4.358 0-1.577.11-3.327 1.09-4.36a3.286 3.286 0 0 1 2.422-1.031c.953 0 1.824.373 2.45 1.032.981 1.032 1.062 2.782 1.062 4.359 0 1.576-.081 3.325-1.062 4.357m1.389-9.976c-.927-.977-2.205-1.607-3.839-1.607-1.633 0-2.913.63-3.838 1.607-1.36 1.46-1.634 3.44-1.634 5.619 0 2.18.273 4.156 1.634 5.619.925.972 2.205 1.605 3.838 1.605 1.634 0 2.912-.633 3.839-1.605 1.36-1.463 1.633-3.44 1.633-5.62 0-2.179-.273-4.157-1.633-5.618M127.613 241.65c-.736.772-1.279 1.03-2.311 1.03-1.962 0-3.213-1.634-3.213-3.783v-8.655h-1.96v14.104h1.96v-1.725c.735 1.178 2.203 1.895 3.756 1.895 1.278 0 2.259-.314 3.211-1.319zM137.47 240.646a3.327 3.327 0 0 1-3.127 2.12c-1.416 0-2.613-.833-3.132-2.12-.299-.777-.354-1.203-.408-2.352h7.075c-.052 1.149-.108 1.575-.408 2.352m-6.667-3.9c0-3.095 1.389-4.875 3.948-4.875 1.55 0 2.448.489 3.508 1.606l1.335-1.233c-1.36-1.435-2.614-2.178-4.899-2.178-3.538 0-5.853 2.235-5.853 7.226 0 4.557 2.097 7.224 5.5 7.224 3.455 0 5.498-2.639 5.498-6.822v-.948zM150.517 236.746h-3.758c-2.015 0-2.993-.86-2.993-2.496 0-1.632.951-2.406 3.074-2.406 1.146 0 2.154.087 2.997.945.46.458.68 1.265.68 2.438zm0-6.505v1.342c-1.091-1.144-2.066-1.516-3.865-1.516-1.852 0-2.941.372-3.784 1.29-.656.688-1.008 1.749-1.008 2.866 0 2.465 1.632 4.07 4.627 4.07h4.03v1.351c0 2.06-.978 3.095-3.431 3.095-1.715 0-2.585-.432-3.375-1.608l-1.334 1.29c1.2 1.635 2.561 2.095 4.737 2.095 3.593 0 5.363-1.635 5.363-4.702v-9.573zM164.272 248.704v-7.51h8.49v-1.954h-8.49v-9h-2.07v20.414h12.033v-1.95zM182.732 241.65a3.355 3.355 0 0 1-2.448 1.03 3.286 3.286 0 0 1-2.424-1.03c-.98-1.033-1.092-2.782-1.092-4.358 0-1.577.113-3.327 1.092-4.36a3.282 3.282 0 0 1 2.424-1.031c.951 0 1.82.373 2.448 1.032.98 1.032 1.067 2.782 1.067 4.359 0 1.576-.087 3.325-1.067 4.357m1.39-9.976c-.922-.977-2.206-1.607-3.838-1.607-1.635 0-2.914.63-3.838 1.607-1.362 1.46-1.632 3.44-1.632 5.619 0 2.18.27 4.156 1.632 5.619.924.972 2.203 1.605 3.838 1.605 1.632 0 2.916-.633 3.837-1.605 1.364-1.463 1.635-3.44 1.635-5.62 0-2.179-.271-4.157-1.635-5.618M196.35 241.65c-.735.772-1.278 1.03-2.313 1.03-1.96 0-3.213-1.634-3.213-3.783v-8.655h-1.96v14.104h1.96v-1.725c.736 1.178 2.205 1.895 3.757 1.895 1.281 0 2.26-.314 3.212-1.319zM206.211 240.646c-.52 1.287-1.717 2.12-3.132 2.12a3.332 3.332 0 0 1-3.129-2.12c-.3-.777-.359-1.203-.41-2.352h7.079c-.057 1.149-.111 1.575-.408 2.352m-6.67-3.9c0-3.095 1.387-4.875 3.946-4.875 1.554 0 2.451.489 3.513 1.606l1.337-1.233c-1.367-1.435-2.616-2.178-4.904-2.178-3.542 0-5.852 2.235-5.852 7.226 0 4.557 2.093 7.224 5.498 7.224 3.459 0 5.498-2.639 5.498-6.822v-.948zM215.879 230.067c-2.262 0-4.032.543-5.502 2.037l1.308 1.372c1.06-1.176 2.504-1.63 4.163-1.63 2.208 0 3.567.832 3.567 2.493 0 1.233-.678 1.92-2.231 2.064l-2.205.202c-2.614.228-4.004 1.46-4.004 3.782 0 2.578 2.069 4.13 4.928 4.13 1.904 0 3.621-.49 4.82-1.517l-1.278-1.35c-.951.77-2.177 1.117-3.566 1.117-1.963 0-2.994-.89-2.994-2.32 0-1.206.651-1.92 2.337-2.069l2.154-.2c2.339-.229 3.947-1.177 3.947-3.814 0-2.722-2.208-4.297-5.444-4.297M227.557 230.24c-2.286 0-3.428 1.691-3.428 3.784v8.656h-1.686v1.577h1.686v4.416h1.96v-4.416h2.858v-1.577h-2.859v-8.6c0-1.29.569-2.06 1.826-2.06h1.033v-1.78zM239.243 241.65c-.738.772-1.28 1.03-2.319 1.03-1.957 0-3.213-1.634-3.213-3.783v-8.655h-1.956v14.104h1.956v-1.725c.74 1.178 2.208 1.895 3.762 1.895 1.28 0 2.258-.314 3.209-1.319z" style="fill:#4c4d4f;fill-opacity:1;fill-rule:nonzero;stroke:none;stroke-width:1.50001" transform="matrix(1.33333 0 0 -1.33333 202.9 498.917)"/><path d="M245.454 226.826c-.27-.774-.57-1.287-.955-1.665-.707-.714-1.66-.973-2.61-.973h-.846v1.836h.598c1.36 0 1.769.46 2.208 1.749l.95 2.752-4.815 13.821h2.118l3.682-11.323 3.641 11.323h2.125zM266.285 248.704h-4.955v-8.117h4.955c2.422 0 4.11 1.376 4.11 4.073 0 2.692-1.688 4.044-4.11 4.044m.19-10.067h-5.145v-8.397h-2.068v20.414h7.213c3.539 0 5.987-2.325 5.987-5.994 0-3.67-2.448-6.023-5.987-6.023M282.461 241.65c-.738.772-1.281 1.03-2.316 1.03-1.959 0-3.213-1.634-3.213-3.783v-8.655h-1.959v14.104h1.959v-1.725c.737 1.178 2.205 1.895 3.759 1.895 1.278 0 2.258-.314 3.21-1.319zM291.638 241.65a3.353 3.353 0 0 1-2.452 1.03 3.281 3.281 0 0 1-2.42-1.03c-.982-1.033-1.087-2.782-1.087-4.358 0-1.577.105-3.327 1.087-4.36a3.277 3.277 0 0 1 2.42-1.031c.955 0 1.827.373 2.452 1.032.98 1.032 1.06 2.782 1.06 4.359 0 1.576-.08 3.325-1.06 4.357m1.39-9.976c-.926-.977-2.206-1.607-3.842-1.607-1.63 0-2.909.63-3.834 1.607-1.362 1.46-1.637 3.44-1.637 5.619 0 2.18.275 4.156 1.637 5.619.925.972 2.203 1.605 3.834 1.605 1.636 0 2.916-.633 3.841-1.605 1.36-1.463 1.63-3.44 1.63-5.62 0-2.179-.27-4.157-1.63-5.618M314.97 230.24v8.686c0 2.493-1.28 3.754-3.295 3.754-1.957 0-3.348-1.29-3.348-3.526v-8.913h-1.956v8.685c0 2.493-1.28 3.754-3.295 3.754-2.013 0-3.35-1.29-3.35-3.754v-8.685h-1.96v14.104h1.96v-1.55c.956 1.147 2.283 1.721 3.782 1.721 1.855 0 3.295-.804 4.113-2.35 1.035 1.546 2.533 2.35 4.413 2.35 1.438 0 2.637-.49 3.454-1.318.954-.977 1.446-2.294 1.446-3.927v-9.03zM327.83 241.65a3.352 3.352 0 0 1-2.45 1.03 3.276 3.276 0 0 1-2.419-1.03c-.984-1.033-1.092-2.782-1.092-4.358 0-1.577.108-3.327 1.092-4.36a3.271 3.271 0 0 1 2.418-1.031c.956 0 1.825.373 2.452 1.032.982 1.032 1.062 2.782 1.062 4.359 0 1.576-.08 3.325-1.062 4.357m1.389-9.976c-.926-.977-2.205-1.607-3.84-1.607-1.633 0-2.909.63-3.836 1.607-1.362 1.46-1.635 3.44-1.635 5.619 0 2.18.273 4.156 1.635 5.619.927.972 2.203 1.605 3.835 1.605 1.636 0 2.915-.633 3.84-1.605 1.363-1.463 1.633-3.44 1.633-5.62 0-2.179-.27-4.157-1.632-5.618M337.715 230.24c-2.286 0-3.427 1.691-3.427 3.784v8.656H332.6v1.577h1.688v4.416h1.957v-4.416h2.858v-1.577h-2.858v-8.6c0-1.29.57-2.06 1.826-2.06h1.032v-1.78zM341.913 244.345h1.959v-14.104h-1.96zm-.111 6.333h2.205v-2.323h-2.205zM354.926 241.65a3.354 3.354 0 0 1-2.454 1.03 3.28 3.28 0 0 1-2.418-1.03c-.983-1.033-1.09-2.782-1.09-4.358 0-1.577.107-3.327 1.09-4.36a3.276 3.276 0 0 1 2.418-1.031 3.35 3.35 0 0 1 2.454 1.032c.98 1.032 1.06 2.782 1.06 4.359 0 1.576-.08 3.325-1.06 4.357m1.39-9.976c-.93-.977-2.206-1.607-3.844-1.607-1.628 0-2.909.63-3.834 1.607-1.36 1.46-1.635 3.44-1.635 5.619 0 2.18.274 4.156 1.635 5.619.925.972 2.206 1.605 3.834 1.605 1.638 0 2.914-.633 3.844-1.605 1.358-1.463 1.628-3.44 1.628-5.62 0-2.179-.27-4.157-1.628-5.618M369.634 230.24v8.686c0 2.493-1.284 3.754-3.294 3.754-2.017 0-3.324-1.29-3.324-3.754v-8.685h-1.957v14.104h1.957v-1.55c.951 1.147 2.26 1.721 3.758 1.721 1.444 0 2.613-.46 3.429-1.318.952-.977 1.39-2.294 1.39-3.927v-9.03zM381.318 250.653h2.068v-20.412h-2.068zM396.13 230.24v8.686c0 2.493-1.279 3.754-3.295 3.754-2.014 0-3.32-1.29-3.32-3.754v-8.685h-1.961v14.104h1.96v-1.55c.956 1.147 2.26 1.721 3.76 1.721 1.44 0 2.608-.46 3.427-1.318.955-.977 1.387-2.294 1.387-3.927v-9.03zM405.99 230.067c-2.258 0-4.03.543-5.501 2.037l1.306 1.372c1.067-1.176 2.507-1.63 4.169-1.63 2.2 0 3.564.832 3.564 2.493 0 1.233-.678 1.92-2.232 2.064l-2.205.202c-2.61.228-4.004 1.46-4.004 3.782 0 2.578 2.073 4.13 4.93 4.13 1.906 0 3.623-.49 4.819-1.517l-1.283-1.35c-.95.77-2.178 1.117-3.564 1.117-1.96 0-2.995-.89-2.995-2.32 0-1.206.654-1.92 2.341-2.069l2.151-.2c2.342-.229 3.95-1.177 3.95-3.814 0-2.722-2.205-4.297-5.447-4.297M417.671 230.24c-2.284 0-3.432 1.691-3.432 3.784v8.656h-1.687v1.577h1.687v4.416h1.964v-4.416h2.857v-1.577h-2.857v-8.6c0-1.29.57-2.06 1.82-2.06h1.037v-1.78zM421.87 244.345h1.958v-14.104h-1.957zm-.11 6.333h2.208v-2.323h-2.208zM431.425 230.24c-2.288 0-3.432 1.691-3.432 3.784v8.656h-1.688v1.577h1.688v4.416h1.962v-4.416h2.859v-1.577h-2.859v-8.6c0-1.29.57-2.06 1.821-2.06h1.038v-1.78zM444.087 230.24v1.576c-.955-1.148-2.286-1.75-3.783-1.75-1.444 0-2.643.458-3.459 1.32-.95.973-1.362 2.32-1.362 3.955v9.004h1.958v-8.686c0-2.496 1.257-3.76 3.273-3.76 2.01 0 3.345 1.294 3.345 3.76v8.686h1.957v-14.104zM453.59 230.24c-2.286 0-3.426 1.691-3.426 3.784v8.656h-1.686v1.577h1.686v4.416h1.957v-4.416h2.858v-1.577h-2.858v-8.6c0-1.29.57-2.06 1.827-2.06h1.03v-1.78zM465.462 240.646a3.333 3.333 0 0 1-3.13 2.12c-1.41 0-2.61-.833-3.128-2.12-.3-.777-.357-1.203-.408-2.352h7.076c-.056 1.149-.11 1.575-.41 2.352m-6.666-3.9c0-3.095 1.385-4.875 3.945-4.875 1.554 0 2.451.489 3.513 1.606l1.334-1.233c-1.362-1.435-2.613-2.178-4.9-2.178-3.54 0-5.852 2.235-5.852 7.226 0 4.557 2.092 7.224 5.496 7.224 3.46 0 5.499-2.639 5.499-6.822v-.948zM216.277 291.807a.73.73 0 0 0-.487-.178h-6.267v-14.86c0-.45-.204-.67-.603-.67h-4.134c-.405 0-.603.22-.603.67v36.427c0 .444.198.669.603.669h4.134c.399 0 .603-.225.603-.67v-16.612h6.267c.186 0 .348-.07.487-.208a.63.63 0 0 0 .21-.467v-3.657a.564.564 0 0 0-.21-.444m-27.744 2.967c-1.458 0-2.66-.444-3.62-1.34-.96-.895-1.442-1.978-1.442-3.251 0-1.305.481-2.423 1.441-3.351.96-.929 2.163-1.395 3.621-1.395 1.485 0 2.702.466 3.648 1.395.942.928 1.413 2.046 1.413 3.35 0 1.274-.47 2.357-1.413 3.251-.946.897-2.163 1.341-3.648 1.341m22.57-28.944a.843.843 0 0 0-.467-.154h-24.518c-1.393 0-2.338.277-2.832.825-.493.55-.74 1.494-.74 2.84v7.994c0 .174.076.344.229.518.154.17.309.26.468.26h3.94c.22 0 .398-.09.536-.26.14-.174.213-.344.213-.518v-5.881c0-.345.06-.566.184-.67.123-.104.34-.155.65-.155h21.87c.154 0 .309-.068.466-.207.153-.138.231-.293.231-.462v-3.663c0-.209-.078-.363-.23-.467m-16.14 42.512c-.137-.17-.33-.255-.578-.255h-12.123c-.122 0-.269.066-.44.204a.7.7 0 0 0-.253.57v3.043c0 .275.084.477.253.618.171.137.318.207.44.207h12.123a.716.716 0 0 0 .555-.255.904.904 0 0 0 .235-.625v-2.937a.886.886 0 0 0-.211-.57m-6.43-8.973c1.393 0 2.708-.242 3.946-.726 1.237-.482 2.314-1.133 3.226-1.96a9.205 9.205 0 0 0 2.163-2.915 8.335 8.335 0 0 0 .788-3.585 8.504 8.504 0 0 0-.788-3.64 9.21 9.21 0 0 0-2.163-2.912c-.912-.824-1.989-1.48-3.226-1.96-1.238-.485-2.571-.72-3.993-.72-1.392 0-2.693.235-3.902.72a10.563 10.563 0 0 0-3.18 1.96 9.146 9.146 0 0 0-2.157 2.911c-.53 1.122-.789 2.336-.789 3.64 0 1.274.26 2.471.79 3.586a9.142 9.142 0 0 0 2.156 2.914c.914.828 1.979 1.48 3.206 1.96a10.55 10.55 0 0 0 3.922.727m12.422 2.032a.652.652 0 0 0-.488-.228h-24.61c-.186 0-.356.086-.509.26a.874.874 0 0 0-.23.618v3.043c0 .171.082.344.253.515.17.172.35.26.534.26h24.562a.638.638 0 0 0 .488-.235.77.77 0 0 0 .208-.54v-3.096a.873.873 0 0 0-.208-.597M256.187 309.223c0-.792-.024-1.713-.069-2.76a72.008 72.008 0 0 0-.232-3.356 111.03 111.03 0 0 0-.396-3.639 60.108 60.108 0 0 0-.555-3.61h6.825c.155 0 .31-.093.464-.282.156-.188.237-.37.237-.54v-3.359c0-.17-.081-.34-.237-.51-.153-.174-.31-.262-.464-.262h-17.922v-7.688h9.052c1.27 0 2.099-.241 2.484-.721.387-.482.582-1.48.582-2.99v-13.881c0-.172-.07-.334-.208-.49-.141-.155-.287-.233-.443-.233h-4.04a.636.636 0 0 0-.485.233c-.14.156-.21.318-.21.49v11.865c0 .348-.063.57-.186.67-.125.104-.357.157-.696.157h-22.844a.775.775 0 0 0-.468.18.533.533 0 0 0-.23.436v3.666c0 .207.076.363.23.467a.86.86 0 0 0 .468.151h11.654v7.688h-17.183c-.183 0-.342.088-.465.262a.856.856 0 0 0-.186.51v3.359c0 .547.216.822.651.822h28.698c.276 1.686.512 3.429.696 5.238a57.19 57.19 0 0 1 .278 5.803c0 .482-.111.785-.324.903-.22.123-.542.182-.975.182h-21.64c-.155 0-.31.066-.464.207-.155.136-.231.292-.231.462v3.56c0 .21.076.36.23.466a.84.84 0 0 0 .466.154h25.074c.988 0 1.747-.28 2.275-.85.524-.57.79-1.491.79-2.76M299.604 286.935c0-.451-.2-.673-.603-.673h-4.132c-.402 0-.605.24-.605.721v26.213c0 .444.203.669.605.669H299c.402 0 .603-.225.603-.67zm-5.29-8.671c0 .277-.042.454-.119.544-.076.081-.238.126-.486.126H278.43c-.249 0-.41-.033-.484-.1-.08-.071-.119-.245-.119-.518v-7.226c0-.307.04-.496.119-.564.073-.067.235-.105.484-.105h15.28c.247 0 .409.038.485.105.077.068.119.257.119.564zm4.528-11.764c-.513-.547-1.356-.825-2.533-.825h-19.736c-1.425 0-2.454.278-3.087.825-.636.55-.952 1.494-.952 2.841v10.628c0 1.302.256 2.249.765 2.838.511.58 1.357.876 2.53.876h20.249c1.39 0 2.326-.285 2.808-.85.481-.57.718-1.54.718-2.916v-10.628c0-1.307-.256-2.238-.762-2.789m-16.51 33.59c0 2.03-.542 3.651-1.626 4.875-1.083 1.22-2.54 1.832-4.364 1.832-1.765 0-3.19-.612-4.273-1.832-1.082-1.224-1.626-2.845-1.626-4.875 0-2.064.544-3.715 1.626-4.954 1.083-1.24 2.508-1.857 4.273-1.857 1.824 0 3.28.618 4.364 1.857 1.084 1.239 1.626 2.89 1.626 4.954m5.293.1c0-1.721-.271-3.308-.813-4.772-.541-1.458-1.314-2.724-2.319-3.79a10.53 10.53 0 0 0-3.579-2.477c-1.378-.585-2.902-.876-4.572-.876-1.642 0-3.142.29-4.504.876a10.104 10.104 0 0 0-3.508 2.478c-.973 1.065-1.726 2.33-2.25 3.789-.528 1.464-.79 3.05-.79 4.771 0 1.653.262 3.2.79 4.647a11.393 11.393 0 0 0 2.25 3.79 10.441 10.441 0 0 0 3.508 2.554c1.362.62 2.862.933 4.504.933 1.67 0 3.194-.312 4.572-.933a10.88 10.88 0 0 0 3.58-2.553 11.333 11.333 0 0 0 2.318-3.79c.542-1.448.813-2.995.813-4.648M336.703 275.016H319.85v-3.611c0-.583.279-.879.835-.879h15.184c.558 0 .835.295.835.879zm4.598-8.489c-.495-.567-1.406-.852-2.74-.852h-20.524c-1.362 0-2.292.258-2.784.777-.494.514-.744 1.458-.744 2.838v15.27a.6.6 0 0 0 .187.44.586.586 0 0 0 .417.181h4.088a.69.69 0 0 0 .442-.181.576.576 0 0 0 .206-.44v-4.746h16.854v4.953c0 .17.063.326.19.464.124.135.263.205.415.205h4.134c.156 0 .294-.07.418-.205a.684.684 0 0 0 .186-.464V269.13c0-1.164-.249-2.037-.745-2.602m-16.717 34.284c0 .894-.136 1.752-.417 2.579a6.473 6.473 0 0 1-1.206 2.167 6.207 6.207 0 0 1-1.906 1.497c-.74.378-1.562.567-2.459.567-.9 0-1.713-.189-2.439-.567a6.253 6.253 0 0 1-1.878-1.497 6.402 6.402 0 0 1-1.209-2.167 8 8 0 0 1-.417-2.579c0-.895.138-1.746.417-2.553a6.457 6.457 0 0 1 1.21-2.142 5.817 5.817 0 0 1 1.877-1.468c.726-.363 1.54-.543 2.44-.543.896 0 1.718.18 2.458.543.742.358 1.38.85 1.906 1.468a6.53 6.53 0 0 1 1.206 2.142c.281.807.417 1.658.417 2.553m16.858-13.003h-4.134c-.4 0-.605.244-.605.721v9.6h-7.287a12.552 12.552 0 0 0-1.347-3.481 10.5 10.5 0 0 0-2.322-2.811 10.858 10.858 0 0 0-3.204-1.884c-1.206-.465-2.523-.698-3.947-.698-1.67 0-3.192.318-4.552.953a10.84 10.84 0 0 0-3.482 2.553 11.624 11.624 0 0 0-2.227 3.688 12.217 12.217 0 0 0-.79 4.362c0 1.55.262 3.026.79 4.439.526 1.41 1.267 2.649 2.227 3.714.96 1.07 2.12 1.92 3.482 2.556 1.36.633 2.881.954 4.552.954 1.485 0 2.84-.25 4.061-.75 1.224-.5 2.308-1.17 3.255-2.013a10.614 10.614 0 0 0 2.32-2.993 13.19 13.19 0 0 0 1.274-3.636h7.197v10.113c0 .446.204.67.605.67h4.134c.4 0 .604-.224.604-.67V288.53c0-.477-.204-.721-.604-.721M383.558 279.4c0-.449-.201-.67-.603-.67h-4.131c-.404 0-.606.24-.606.72v33.745c0 .446.202.67.606.67h4.131c.402 0 .603-.224.603-.67zm1.232-13.57a.8.8 0 0 0-.488-.154h-24.285c-1.395 0-2.33.276-2.81.824-.48.552-.718 1.494-.718 2.84v10.936c0 .174.069.343.208.514.138.174.285.263.441.263h4.04a.654.654 0 0 0 .487-.233.788.788 0 0 0 .209-.544v-8.823c0-.344.061-.566.184-.67.125-.103.344-.155.653-.155h21.591c.155 0 .31-.068.464-.206.153-.138.232-.294.232-.463v-3.662c0-.208-.069-.364-.208-.468m-33.505 17.906a1.75 1.75 0 0 0-.765-.156c-.297 0-.534.19-.72.567l-1.393 2.53a1.104 1.104 0 0 0-.116.851c.078.292.27.525.584.696a31.982 31.982 0 0 1 4.897 3.303 36.385 36.385 0 0 1 4.27 4.073 32.666 32.666 0 0 1 3.344 4.443c.944 1.509 1.647 2.97 2.115 4.38.122.343.177.628.16.85-.016.225-.286.338-.812.338h-11.423c-.214 0-.38.076-.487.23a.926.926 0 0 0-.162.545v3.455c0 .481.23.726.697.726h14.718c1.364 0 2.367-.29 3.021-.854.645-.567.894-1.404.74-2.502a14.647 14.647 0 0 0-.231-1.135c-.09-.377-.186-.722-.28-1.032a22.289 22.289 0 0 0-1.487-4 36.517 36.517 0 0 0-2.273-4.05 22.9 22.9 0 0 1 1.904-2.063 43.965 43.965 0 0 1 4.458-3.762 25.515 25.515 0 0 1 2.041-1.396c.621-.348.746-.862.374-1.549l-1.532-2.631c-.312-.585-.79-.689-1.443-.31-.556.31-1.213.746-1.97 1.316a42.84 42.84 0 0 0-2.37 1.908 43.04 43.04 0 0 0-2.413 2.246 40.516 40.516 0 0 0-2.115 2.268 42.028 42.028 0 0 0-5.245-5.16 39.132 39.132 0 0 0-6.086-4.125M409.42 297.87c-2.35 0-4.157-.273-5.408-.825-1.254-.551-1.88-1.236-1.88-2.064 0-.792.626-1.464 1.88-2.009 1.251-.55 3.057-.828 5.408-.828 2.385 0 4.206.278 5.459.828 1.254.545 1.88 1.217 1.88 2.009 0 .828-.626 1.513-1.88 2.064-1.253.552-3.074.825-5.459.825m7.317 12.022a.656.656 0 0 0-.537-.258h-13.51c-.127 0-.274.07-.442.206a.693.693 0 0 0-.256.567v2.941c0 .24.084.432.256.569.168.133.315.207.441.207H416.2c.188 0 .356-.084.512-.258a.84.84 0 0 0 .232-.57v-2.837a.896.896 0 0 0-.207-.567m-7.317-34.98c-3.095 0-5.43-.318-7.011-.954-1.577-.636-2.367-1.35-2.367-2.142 0-.792.79-1.496 2.367-2.117 1.581-.62 3.916-.928 7.011-.928 3.098 0 5.433.307 7.014.928 1.58.621 2.369 1.325 2.369 2.117s-.79 1.506-2.369 2.142c-1.581.636-3.916.954-7.014.954m0 13.311c-2.103 0-3.93.187-5.477.568-1.55.378-2.833.878-3.858 1.496-1.017.616-1.786 1.332-2.296 2.142-.51.81-.765 1.66-.765 2.552 0 .928.255 1.806.765 2.634.51.825 1.28 1.546 2.296 2.164 1.025.621 2.309 1.118 3.858 1.497 1.547.378 3.374.567 5.477.567 2.106 0 3.942-.189 5.505-.567 1.562-.38 2.855-.876 3.878-1.497 1.023-.618 1.786-1.34 2.296-2.164a4.926 4.926 0 0 0 .765-2.634c0-.891-.253-1.742-.765-2.552-.51-.81-1.273-1.526-2.296-2.142-1.023-.618-2.316-1.118-3.878-1.496-1.563-.38-3.399-.568-5.505-.568m14.768-16.358c0-2.166-1.25-3.927-3.76-5.284-2.507-1.36-6.176-2.04-11.008-2.04-4.827 0-8.498.68-11.003 2.04-2.51 1.357-3.762 3.118-3.762 5.284 0 2.17 1.253 3.92 3.762 5.267 2.505 1.338 6.176 2.013 11.003 2.013 4.832 0 8.5-.675 11.007-2.013 2.511-1.347 3.76-3.096 3.76-5.267m1.79 31.757a.653.653 0 0 0-.49-.232H393.4c-.154 0-.309.096-.462.288a.896.896 0 0 0-.235.592v2.733c0 .171.087.344.253.515.176.174.336.262.494.262h32.036a.653.653 0 0 0 .49-.232.795.795 0 0 0 .206-.545v-2.785a.864.864 0 0 0-.206-.596m4.11-22.107c-.156-.17-.31-.258-.465-.258h-40.398c-.188 0-.342.088-.467.258a.869.869 0 0 0-.184.514v3.045c0 .551.216.828.65.828h40.213c.153 0 .34-.088.555-.258.216-.174.326-.363.326-.57v-3.045c0-.174-.077-.345-.23-.514M467.324 275.323h-4.132c-.4 0-.602.24-.602.725v4.695h-7.944c-.153 0-.301.07-.441.207a.622.622 0 0 0-.205.462v3.252c0 .17.067.316.205.44.14.118.288.178.441.178h7.944v27.913c0 .444.201.67.602.67h4.132c.402 0 .605-.226.605-.67v-37.147c0-.485-.203-.725-.605-.725m-21.827 33.282c-.739 0-1.453-.133-2.133-.388a5.93 5.93 0 0 1-1.764-1.032 4.846 4.846 0 0 1-1.185-1.55 4.33 4.33 0 0 1-.44-1.936c0-.72.145-1.383.44-1.986a4.883 4.883 0 0 1 1.185-1.547 5.677 5.677 0 0 1 1.764-1.027 5.878 5.878 0 0 1 2.133-.392c.779 0 1.494.13 2.163.392a6.047 6.047 0 0 1 1.762 1.027c.513.43.916.948 1.209 1.547.295.603.442 1.266.442 1.986a4.33 4.33 0 0 1-.442 1.936 4.652 4.652 0 0 1-1.21 1.55 6.338 6.338 0 0 1-1.76 1.032 6.003 6.003 0 0 1-2.164.388m23.243-42.672a.718.718 0 0 0-.44-.153h-26.33c-1.426 0-2.375.276-2.854.825-.48.55-.72 1.497-.72 2.837v7.375c0 .174.07.338.209.492.14.156.286.233.44.233h3.994a.636.636 0 0 0 .487-.233.73.73 0 0 0 .209-.492v-5.26c0-.344.063-.567.186-.67.123-.103.357-.155.696-.155h23.684c.153 0 .303-.07.44-.206a.65.65 0 0 0 .21-.463V266.4c0-.208-.074-.363-.21-.468m-23.244 47.21c1.581 0 3.028-.25 4.345-.75 1.314-.5 2.446-1.169 3.388-2.009a9.01 9.01 0 0 0 2.205-2.967 8.462 8.462 0 0 0 .792-3.613c0-1.34-.264-2.598-.792-3.762a8.821 8.821 0 0 0-2.205-3.023c-.942-.843-2.074-1.513-3.388-2.013-1.317-.495-2.764-.747-4.345-.747-1.576 0-3.016.252-4.315.747-1.302.5-2.424 1.17-3.368 2.013a8.59 8.59 0 0 0-2.182 3.023c-.51 1.164-.765 2.422-.765 3.762 0 1.275.255 2.478.765 3.613a8.762 8.762 0 0 0 2.182 2.967c.944.84 2.066 1.51 3.368 2.009 1.299.5 2.739.75 4.315.75m15.35-24.326a1.263 1.263 0 0 0-.442-.336 34.081 34.081 0 0 0-2.877-.44c-1.055-.12-2.136-.233-3.251-.334-1.114-.102-2.224-.2-3.32-.283a72.352 72.352 0 0 0-3.088-.182v-7.428a.776.776 0 0 0-.209-.54.627.627 0 0 0-.489-.232h-3.853a.618.618 0 0 0-.488.232.772.772 0 0 0-.211.54v7.017c-.927-.037-1.878-.063-2.855-.078-.975-.018-1.924-.043-2.854-.078a68.26 68.26 0 0 0-2.65-.05c-.832 0-1.56.014-2.179.05a.543.543 0 0 0-.463.26.938.938 0 0 0-.19.565v3.201c0 .203.064.384.19.539a.561.561 0 0 0 .463.234 299.42 299.42 0 0 1 14.534.333c2.505.121 4.922.273 7.244.466 2.32.188 4.332.422 6.037.7.153.032.317 0 .486-.109a.629.629 0 0 0 .305-.462l.322-2.941c.032-.276-.022-.488-.162-.644" style="fill:#4c4d4f;fill-opacity:1;fill-rule:nonzero;stroke:none;stroke-width:1.50001" transform="matrix(1.33333 0 0 -1.33333 202.9 498.917)"/><path d="m-94.352 362.16-28.158-43.368 25.248-53.51h32.363l-28.724 52.945 28.868 43.932z" style="fill:url(#a);stroke:none;stroke-width:1.50001" transform="matrix(1.33333 0 0 -1.33333 202.9 498.917)"/><path d="M-152.174 265.281h28.815v96.878h-28.815z" style="fill:url(#b);stroke:none;stroke-width:1.50001" transform="matrix(1.33333 0 0 -1.33333 202.9 498.917)"/><path d="M132.54 265.281h26.544v70.759H132.54z" style="fill:url(#c);stroke:none;stroke-width:1.50001" transform="matrix(1.33333 0 0 -1.33333 202.9 498.917)"/><path d="M136.55 363.823c-2.629-2.53-3.94-5.526-3.94-8.978 0-3.688 1.242-6.721 3.726-9.08 2.484-2.372 5.664-3.553 9.545-3.553 3.88 0 7.06 1.18 9.547 3.552 2.483 2.36 3.725 5.393 3.725 9.081 0 3.452-1.311 6.449-3.94 8.978-2.623 2.53-5.737 3.796-9.332 3.796-3.597 0-6.707-1.266-9.332-3.796" style="fill:url(#d);stroke:none;stroke-width:1.50001" transform="matrix(1.33333 0 0 -1.33333 202.9 498.917)"/><path d="M27.614 368.408c-5.988-3.862-10.445-8.84-13.376-14.943-2.32-4.782-3.48-10.55-3.48-17.322v-5.034h-26.73c-6.02 4.265-12.877 6.42-20.588 6.42-10.695 0-19.681-3.535-26.971-10.61-7.287-7.075-10.928-15.79-10.928-26.154 0-10.174 3.64-18.868 10.928-26.079 7.29-7.216 16.065-10.831 26.332-10.831s19.031 3.6 26.296 10.792c7.26 7.19 10.893 15.894 10.893 26.118 0 .843-.063 1.658-.113 2.48h10.881V265.22h26.544v38.025h16.616c-.816-3.531-1.228-7.346-1.228-11.457V230.24h26.54v60.557c0 9.41 3.409 14.122 10.222 14.122 2.84 0 5.275-.984 7.31-2.947 2.035-1.96 3.052-4.34 3.052-7.128 0-2.798-.981-5.208-2.945-7.245-1.965-2.034-4.321-3.051-7.062-3.051-2.178 0-4.356.876-6.53 2.63v-29.243c3.125-.329 5.49-.495 7.096-.495 9.843 0 18.358 3.64 25.551 10.927 7.193 7.287 10.788 15.94 10.788 25.977 0 10.314-3.62 19.022-10.86 26.115-7.235 7.097-16.134 10.649-26.684 10.649H37.302v2.41c0 4.121.915 7.288 2.732 9.515 1.824 2.219 5.74 3.333 9.099 3.333.285 0 5.045-.022 5.66-.07v27.822l-7.15.069c-6.481 0-14.044-1.923-20.03-5.78m-64.315-66.222a5.92 5.92 0 0 0-1.124 3.463c0 2.726 1.842 5.001 4.34 5.71a6.707 6.707 0 0 0-.156 1.418c0 2.754 1.714 5.112 4.197 6.303.582 2.258 1.632 4.095 3.548 4.095 1.917 0 2.967-1.837 3.543-4.095 2.484-1.186 4.197-3.549 4.197-6.303 0-.484-.054-.96-.15-1.417 2.496-.71 4.338-2.985 4.338-5.71a5.92 5.92 0 0 0-.894-3.106 5.947 5.947 0 0 0 3.57-5.45 5.963 5.963 0 0 0-5.963-5.968c-1.788 0-3.373.803-4.465 2.046v-9.42c0-1.708-.389-2.98-1.167-3.823-.777-.845-1.797-1.268-3.051-1.268-1.203 0-2.193.43-2.97 1.28-.778.85-1.168 2.122-1.168 3.811v8.58a5.907 5.907 0 0 0-3.565-1.206 5.961 5.961 0 0 0-5.828 4.718h-6.205v-12.092c0-1.708-.39-2.98-1.17-3.823-.777-.845-1.794-1.268-3.05-1.268-1.203 0-2.191.43-2.971 1.28-.779.85-1.166 2.122-1.166 3.811v12.092h-9.133l9.133 14.262v.7h-5.632l9.81 12.37 9.813-12.37h-5.634v-.7l6.678-10.431a6.012 6.012 0 0 0 2.295 2.51" style="fill:url(#e);stroke:none;stroke-width:1.50001" transform="matrix(1.33333 0 0 -1.33333 202.9 498.917)"/></svg>